<svg width="306px" height="80px" viewBox="0 0 306 80" version="1.1" xmlns="http://www.w3.org/2000/svg" xmlns:xlink="http://www.w3.org/1999/xlink" xmlns:sketch="http://www.bohemiancoding.com/sketch/ns">
    <!-- Generator: Sketch 3.2.2 (9983) - http://www.bohemiancoding.com/sketch -->
    <title>heroku-on-light</title>
    <desc>Created with Sketch.</desc>
    <defs></defs>
    <g id="Page-1" stroke="none" stroke-width="1" fill="none" fill-rule="evenodd" sketch:type="MSPage">
        <g id="heroku-on-light" sketch:type="MSLayerGroup" fill="#fff">
            <path d="M64.8,0 L7.2,0 C3.2,0 7.10542736e-15,3.2 7.10542736e-15,7.2 L7.10542736e-15,72.8 C7.10542736e-15,76.8 3.2,80 7.2,80 L64.8,80 C68.8,80 72,76.8 72,72.8 L72,7.2 C72,3.2 68.8,0 64.8,0 L64.8,0 L64.8,0 Z M68,72.8 C68,74.6 66.6,76 64.8,76 L7.2,76 C5.4,76 4,74.6 4,72.8 L4,7.2 C4,5.4 5.4,4 7.2,4 L64.8,4 C66.6,4 68,5.4 68,7.2 L68,72.8 L68,72.8 Z" id="Shape" sketch:type="MSShapeGroup"></path>
            <path d="M18,68 L27,60 L18,52 L18,68 L18,68 Z" id="Shape" sketch:type="MSShapeGroup"></path>
            <path d="M50.5,35.6 C48.9,33.9 45.9,32 41,32 C35.6,32 30,33.4 26,34.7 L26,12 L18,12 L18,46.7 L23.7,44.1 C23.8,44.1 32.9,40 41,40 C45.1,40 46,42.2 46,44.1 L46,68 L54,68 L54,44 C54,43.5 54,39.1 50.5,35.6 L50.5,35.6 L50.5,35.6 Z" id="Shape" sketch:type="MSShapeGroup"></path>
            <path d="M40,25 L48,25 C51.6,20.9 53.5,16.5 54,12 L46,12 C45.1,16.5 43.1,20.9 40,25 L40,25 L40,25 Z" id="Shape" sketch:type="MSShapeGroup"></path>
            <path d="M112,28.1 C107.5,28.1 101.8,29.3 98,30.8 L98,12 L90,12 L90,68 L98,68 L98,37.6 C101.9,35.8 107.4,34.9 110.9,34.9 C112.6,34.9 114.1,35.8 114.1,37.9 L114.1,68 L122,68 L122,39 C122,32.7 119.3,28.1 112,28.1 L112,28.1 L112,28.1 Z" id="Shape" sketch:type="MSShapeGroup"></path>
            <path d="M146.1,28 C139.4,28 134,28.8 130,30.4 C128.5,35.9 128,41.5 128,48.1 C128,60.2 130.1,68 143.4,68 C149.6,68 154.8,66.1 159.1,64.1 L157.8,57.9 C153.8,59.5 148.6,61.1 144,61.1 C138.1,61.1 136.3,59.9 136,50.1 L160,50.1 L160,45.9 C160,34.8 156.4,28 146.1,28 L146.1,28 L146.1,28 Z M136,44 C136.1,39.8 136.7,35.7 136.7,35.7 C136.7,35.7 140.7,34.9 146.1,34.9 C151.5,34.9 153,38.3 153,44 L136,44 L136,44 Z" id="Shape" sketch:type="MSShapeGroup"></path>
            <path d="M298,28 L298,58 C298,58 292.4,61 285,61 C283.3,61 282,60.3 282,58.2 L282,28 L274,28 L274,57.2 C274,63.5 277.3,68 284,68 C295.6,68 306,62 306,62 L306,28 L298,28 L298,28 Z" id="Shape" sketch:type="MSShapeGroup"></path>
            <path d="M210,28 C199.4,28 192,33.6 192,48.2 C192,62 197.6,68 210,68 C220.6,68 228,62.4 228,47.8 C228,34 222.4,28 210,28 L210,28 L210,28 Z M210,62 C203.3,62 200.1,57.6 200.1,47.9 C200.1,37.7 204.3,34 210,34 C216.7,34 219.9,38.4 219.9,48.1 C219.9,58.3 215.7,62 210,62 L210,62 L210,62 Z" id="Shape" sketch:type="MSShapeGroup"></path>
            <path d="M166,68 L174,68 L174,38 C176.9,36.4 181.7,35.1 188,35 L188,28.1 C175.3,28.1 166,34 166,34 L166,68 L166,68 Z" id="Shape" sketch:type="MSShapeGroup"></path>
            <path d="M254.5,46.7 C259.7,39.9 264,33.6 266.4,28 L258.1,28 C255.3,33.9 251.9,39.3 248,44 L242,44 L242,12 L234,12 L234,68 L242,68 L242,50 L248,50 C251.9,54.8 255.7,60.6 259.6,68 L268,68 C264.2,60.4 259.9,53.2 254.5,46.7 L254.5,46.7 L254.5,46.7 Z" id="Shape" sketch:type="MSShapeGroup"></path>
        </g>
    </g>
</svg>
